<?xml version="1.0" standalone="no"?>
<!DOCTYPE svg PUBLIC "-//W3C//DTD SVG 20010904//EN"
 "http://www.w3.org/TR/2001/REC-SVG-20010904/DTD/svg10.dtd">
<svg version="1.0" xmlns="http://www.w3.org/2000/svg"
 width="512.000000pt" height="512.000000pt" viewBox="0 0 512.000000 512.000000"
 preserveAspectRatio="xMidYMid meet">

<g transform="translate(0.000000,512.000000) scale(0.100000,-0.100000)"
fill="#000000" stroke="none">
<path d="M945 5114 c-371 -57 -619 -212 -788 -491 -105 -174 -152 -372 -144
-598 8 -213 59 -379 168 -544 164 -249 406 -398 725 -446 124 -19 190 -19 279
0 184 38 360 176 444 346 45 92 71 192 71 282 0 31 4 57 8 57 5 0 32 -7 62
-16 174 -52 224 -56 664 -61 469 -5 485 -4 546 57 87 87 74 232 -29 305 l-43
30 -426 6 c-523 7 -504 4 -857 142 -210 81 -277 102 -400 122 -182 30 -277 14
-350 -60 -106 -106 -94 -284 24 -370 82 -60 192 -70 269 -25 33 20 35 20 54 3
11 -10 32 -38 47 -63 22 -38 26 -57 25 -115 -3 -315 -419 -344 -710 -50 -195
199 -239 478 -113 735 83 169 260 307 444 345 167 35 284 15 740 -125 293 -90
577 -132 900 -132 373 -1 621 40 1045 172 394 123 556 129 760 29 119 -59 230
-170 289 -289 126 -257 82 -536 -113 -735 -191 -192 -467 -262 -616 -154 -92
67 -125 222 -69 319 15 25 36 53 47 63 19 17 21 17 54 -3 110 -65 282 -12 338
106 84 173 -37 365 -229 364 -72 0 -179 -27 -256 -64 -284 -136 -432 -424
-370 -721 38 -184 176 -361 345 -444 142 -69 251 -84 434 -56 446 67 753 341
868 775 28 107 35 326 14 447 -64 366 -296 655 -630 784 -139 54 -243 72 -406
72 -176 0 -257 -15 -572 -107 -277 -82 -355 -102 -490 -126 -169 -30 -357 -43
-528 -37 -260 11 -411 40 -800 152 -146 42 -308 86 -360 96 -93 19 -305 32
-365 23z"/>
<path d="M2022 3219 c-46 -14 -109 -80 -122 -128 -7 -27 -10 -296 -8 -855 l3
-814 30 -43 c81 -114 249 -114 330 0 l30 43 0 836 0 837 -24 38 c-47 76 -151
113 -239 86z"/>
<path d="M2962 3219 c-46 -14 -109 -80 -122 -128 -7 -28 -10 -222 -8 -605 l3
-564 30 -43 c81 -114 249 -114 330 0 l30 43 0 586 0 587 -24 38 c-47 76 -151
113 -239 86z"/>
<path d="M1069 2607 c-24 -13 -57 -43 -74 -66 l-30 -43 -3 -986 c-2 -685 1
-1007 8 -1052 18 -107 71 -203 159 -290 88 -87 148 -123 257 -150 137 -35 270
-20 395 46 55 29 113 78 267 225 l197 188 392 117 c216 64 403 122 417 129 39
20 826 655 879 708 94 97 166 225 203 362 17 61 19 109 19 387 l0 316 -30 43
c-83 117 -247 117 -330 0 l-30 -43 -5 -301 -5 -302 -31 -65 c-17 -36 -44 -80
-60 -99 -21 -25 -611 -505 -790 -642 -6 -5 -191 -62 -411 -128 -221 -66 -410
-124 -421 -130 -11 -6 -111 -99 -223 -207 -202 -194 -242 -224 -296 -224 -44
1 -108 34 -134 71 l-24 34 -5 997 -5 996 -30 43 c-38 54 -103 89 -165 89 -30
0 -63 -8 -91 -23z"/>
</g>
</svg>
