<svg id="svg" version="1.1" width="800" height="532" xmlns="http://www.w3.org/2000/svg"><path d="M312.095 24.646 C 310.413 25.824,310.009 27.138,310.044 31.307 C 310.068 34.163,310.736 38.300,311.529 40.500 C 313.483 45.925,313.363 47.750,311.000 48.500 C 309.507 48.974,309.000 50.013,309.000 52.600 C 309.000 54.505,308.325 57.680,307.500 59.654 C 304.918 65.833,305.363 68.268,311.378 80.906 C 312.531 83.329,314.268 85.519,315.237 85.772 C 316.207 86.026,317.000 86.771,317.000 87.429 C 317.000 88.086,318.350 89.622,320.000 90.842 C 321.650 92.062,323.000 93.622,323.000 94.309 C 323.000 96.064,329.960 103.034,332.784 104.108 C 334.074 104.599,336.186 105.000,337.476 105.000 C 342.540 105.000,345.823 118.929,342.330 125.599 C 340.016 130.019,341.209 133.308,346.504 137.110 C 350.750 140.159,351.000 140.604,351.000 145.098 C 351.000 147.746,350.405 150.452,349.658 151.199 C 348.018 152.839,346.000 156.512,346.000 157.858 C 346.000 158.401,347.174 160.241,348.608 161.946 L 351.216 165.046 351.088 188.773 C 350.960 212.355,350.385 236.371,349.490 255.500 C 349.233 261.000,348.726 291.600,348.364 323.500 C 347.839 369.779,347.433 381.899,346.353 383.473 C 344.646 385.961,344.528 400.271,346.192 402.935 C 347.094 404.380,347.109 405.737,346.255 408.521 C 345.602 410.650,345.204 418.036,345.312 426.053 L 345.498 439.906 341.537 443.962 C 338.157 447.423,337.599 448.605,337.735 452.009 C 337.845 454.762,337.477 456.000,336.551 456.000 C 334.587 456.000,329.026 462.701,328.844 465.285 C 328.759 466.503,328.776 468.512,328.882 469.750 C 328.989 470.988,328.651 472.000,328.132 472.000 C 327.612 472.000,325.570 474.251,323.594 477.002 L 320.000 482.005 320.000 494.467 C 320.000 505.840,320.172 507.022,321.969 507.983 C 325.105 509.662,475.498 508.903,477.200 507.200 C 478.112 506.288,478.500 502.555,478.500 494.700 C 478.500 482.787,478.368 482.319,471.973 471.500 C 470.347 468.750,468.551 464.833,467.982 462.795 C 467.413 460.758,465.834 457.768,464.474 456.151 C 463.113 454.534,462.000 452.515,462.000 451.665 C 462.000 450.814,461.593 449.866,461.095 449.559 C 460.598 449.252,458.792 446.521,457.083 443.492 L 453.974 437.985 453.537 414.242 C 453.296 401.184,452.861 387.800,452.568 384.500 C 452.276 381.200,451.757 352.400,451.414 320.500 C 451.072 288.600,450.670 260.025,450.521 257.000 C 450.032 247.059,448.682 188.748,448.667 176.917 C 448.655 167.688,448.992 164.849,450.326 162.945 C 452.365 160.034,452.410 157.722,450.529 152.500 C 449.736 150.300,449.078 146.700,449.065 144.500 C 449.045 140.965,449.505 140.173,453.018 137.688 C 457.324 134.641,458.655 131.516,457.471 127.232 C 456.558 123.927,456.579 115.040,457.514 109.314 C 458.183 105.221,458.284 105.129,462.091 105.182 C 467.082 105.251,472.255 102.781,475.189 98.929 C 476.460 97.260,478.962 94.176,480.750 92.076 C 482.538 89.976,484.000 87.838,484.000 87.325 C 484.000 86.812,485.575 84.866,487.500 83.000 C 489.425 81.134,491.000 78.713,491.000 77.620 C 491.000 76.526,491.952 73.665,493.115 71.262 C 495.019 67.330,495.105 66.446,493.978 62.421 C 493.289 59.961,492.337 57.709,491.863 57.415 C 491.388 57.122,491.000 56.190,491.000 55.345 C 491.000 54.500,490.024 52.438,488.831 50.763 C 486.971 48.151,486.804 47.185,487.660 43.979 C 489.314 37.781,489.300 27.763,487.634 25.500 C 486.182 23.529,484.908 23.498,400.175 23.339 C 326.028 23.201,313.902 23.380,312.095 24.646 M425.734 28.195 C 426.622 28.932,427.400 28.913,428.342 28.131 C 429.249 27.378,438.407 26.990,456.592 26.933 C 471.391 26.887,484.072 26.883,484.771 26.924 C 485.723 26.981,485.920 28.819,485.553 34.250 C 485.284 38.237,485.050 42.063,485.032 42.750 C 485.014 43.438,484.126 44.000,483.057 44.000 C 481.325 44.000,481.488 44.566,484.557 49.227 C 486.451 52.102,488.000 54.976,488.000 55.613 C 488.000 56.250,488.672 58.060,489.494 59.636 C 491.381 63.254,491.425 68.948,489.586 71.574 C 488.808 72.684,488.021 74.918,487.836 76.538 C 487.479 79.667,484.000 81.513,484.000 78.573 C 484.000 76.573,482.397 76.524,481.638 78.500 C 481.273 79.452,479.737 80.000,477.436 80.000 C 475.441 80.000,472.614 80.827,471.154 81.837 C 469.694 82.848,467.712 83.959,466.750 84.306 C 465.717 84.679,465.000 85.964,465.000 87.443 C 465.000 89.216,464.122 90.402,462.000 91.500 C 458.761 93.175,457.628 96.787,460.750 95.483 C 461.712 95.081,463.850 94.451,465.500 94.083 C 467.150 93.714,468.561 92.757,468.635 91.956 C 468.709 91.155,468.821 89.938,468.885 89.250 C 468.948 88.563,469.869 88.000,470.930 88.000 C 472.160 88.000,472.977 87.196,473.180 85.787 C 473.445 83.959,474.194 83.547,477.500 83.416 C 479.700 83.328,481.839 83.451,482.253 83.689 C 483.647 84.490,481.025 87.857,478.752 88.183 C 477.138 88.415,476.561 89.107,476.715 90.625 C 476.974 93.167,470.223 99.789,466.195 100.944 C 464.702 101.372,462.407 101.325,461.094 100.839 C 459.374 100.203,458.236 100.382,457.024 101.478 C 456.099 102.315,455.098 103.000,454.798 103.000 C 454.499 103.000,454.391 100.264,454.557 96.920 C 454.807 91.904,454.603 90.938,453.390 91.404 C 452.582 91.714,451.059 91.429,450.006 90.772 C 447.754 89.365,446.490 90.229,447.386 92.563 C 447.831 93.722,448.724 94.035,450.393 93.616 C 452.752 93.024,452.764 93.066,452.235 99.664 C 451.785 105.270,451.979 106.512,453.480 107.609 C 455.150 108.830,455.162 109.209,453.666 113.782 C 452.198 118.269,452.204 119.064,453.741 123.870 C 455.287 128.704,455.290 129.287,453.776 131.794 C 452.170 134.455,448.000 136.126,448.000 134.108 C 448.000 133.016,443.678 131.646,435.106 130.020 C 428.178 128.706,383.016 128.584,381.724 129.876 C 380.107 131.493,387.017 132.257,398.220 131.700 C 410.085 131.109,436.054 132.665,442.857 134.374 C 446.648 135.326,447.436 135.903,447.152 137.520 C 445.879 144.755,445.949 148.301,447.445 152.216 C 448.958 156.179,448.960 156.856,447.467 161.005 C 446.151 164.662,445.865 169.599,445.933 187.500 C 445.979 199.600,446.194 213.550,446.410 218.500 C 447.082 233.844,447.963 280.352,448.543 331.000 C 448.849 357.675,449.540 385.567,450.079 392.983 C 450.619 400.398,451.008 413.032,450.944 421.058 C 450.814 437.535,451.784 442.545,456.042 447.395 C 457.669 449.248,459.000 451.431,459.000 452.247 C 459.000 453.063,459.858 454.821,460.906 456.153 C 461.954 457.486,463.974 461.437,465.395 464.933 C 466.815 468.430,469.302 473.363,470.921 475.895 C 474.805 481.974,476.170 487.873,475.802 497.000 L 475.500 504.500 399.500 504.500 L 323.500 504.500 323.405 493.000 L 323.310 481.500 326.335 478.750 C 327.999 477.238,329.661 476.000,330.028 476.000 C 330.396 476.000,334.927 476.909,340.098 478.020 C 362.124 482.751,425.538 483.186,451.867 478.786 C 460.281 477.380,465.422 476.064,465.741 475.233 C 466.531 473.175,465.936 473.119,459.000 474.600 C 437.464 479.196,367.464 479.124,343.500 474.480 C 332.686 472.384,330.484 470.778,331.739 465.904 C 332.429 463.227,333.190 462.432,335.308 462.184 C 337.252 461.955,338.000 461.298,338.000 459.817 C 338.000 458.093,338.438 457.868,340.750 458.402 C 355.761 461.867,359.714 462.231,387.519 462.702 C 405.164 463.002,420.646 462.767,427.019 462.103 C 448.353 459.879,457.511 458.775,457.933 458.376 C 458.172 458.151,457.867 457.467,457.256 456.856 C 456.441 456.041,452.056 456.181,440.823 457.379 C 408.932 460.781,343.798 458.472,340.886 453.837 C 339.390 451.456,341.943 446.000,344.554 446.000 C 345.275 446.000,346.737 444.762,347.804 443.250 C 349.426 440.953,349.674 439.265,349.313 433.000 C 349.076 428.875,348.974 421.900,349.087 417.500 C 349.200 413.100,349.249 407.363,349.194 404.750 C 349.010 395.822,349.000 394.997,349.054 392.750 C 349.084 391.512,348.972 389.376,348.804 388.002 C 348.594 386.277,349.119 385.231,350.500 384.621 C 352.448 383.760,352.503 382.711,352.632 344.119 C 352.704 322.328,352.866 303.375,352.991 302.000 C 353.116 300.625,353.174 291.400,353.120 281.500 C 353.066 271.600,353.230 258.775,353.485 253.000 C 353.740 247.225,354.227 225.110,354.567 203.855 C 355.119 169.301,355.013 164.950,353.569 162.746 C 351.523 159.623,352.742 158.486,359.000 157.686 C 361.475 157.370,366.200 156.707,369.500 156.213 C 372.800 155.719,377.300 155.356,379.500 155.407 C 383.257 155.494,383.480 155.667,383.178 158.250 C 383.002 159.762,383.227 161.000,383.678 160.999 C 384.130 160.999,384.348 172.586,384.162 186.749 C 383.976 200.912,384.132 216.250,384.509 220.834 C 385.180 229.006,385.240 229.156,387.597 228.565 C 389.285 228.141,390.000 228.382,390.000 229.374 C 390.000 230.151,390.675 231.045,391.500 231.362 C 393.637 232.182,393.365 231.223,390.491 227.807 C 387.770 224.573,387.730 224.291,387.866 209.500 C 388.196 173.587,387.974 159.821,387.039 158.073 C 385.505 155.206,385.671 155.000,389.531 155.000 C 391.795 155.000,393.231 155.538,393.531 156.500 C 393.789 157.325,394.294 158.787,394.654 159.750 C 395.013 160.713,395.248 166.379,395.176 172.342 C 395.079 180.277,395.450 183.969,396.557 186.110 C 397.911 188.729,397.909 189.098,396.535 189.625 C 394.359 190.460,394.632 193.753,397.000 195.232 C 398.100 195.919,399.000 197.218,399.000 198.118 C 399.000 199.836,401.916 202.883,402.114 201.372 C 402.630 197.438,401.758 186.413,400.844 185.312 C 400.132 184.454,399.663 179.150,399.601 171.247 C 399.503 158.993,399.420 158.519,397.162 157.393 C 395.624 156.627,395.219 155.982,395.980 155.513 C 397.480 154.585,428.694 155.804,435.242 157.046 C 438.009 157.571,441.674 157.985,443.386 157.967 L 446.500 157.933 444.366 156.151 C 440.349 152.794,399.391 150.163,379.000 151.951 C 361.380 153.497,355.099 154.600,352.974 156.524 C 350.467 158.792,348.618 157.588,350.156 154.689 C 350.795 153.485,352.167 151.897,353.206 151.160 C 354.781 150.043,354.989 149.043,354.454 145.160 C 353.541 138.530,351.846 135.009,349.250 134.352 C 346.894 133.756,346.238 131.589,348.070 130.456 C 351.127 128.568,364.362 126.761,379.500 126.167 C 411.453 124.913,441.350 126.737,451.261 130.546 C 452.570 131.049,452.873 130.832,452.439 129.703 C 451.314 126.771,442.167 124.695,423.000 123.021 C 395.322 120.604,353.219 123.381,348.678 127.922 C 346.873 129.727,345.000 129.129,345.007 126.750 C 345.014 124.302,350.351 120.000,353.381 120.000 C 354.639 120.000,355.041 119.360,354.796 117.750 C 354.435 115.388,354.231 115.335,349.635 116.420 C 346.797 117.090,346.776 117.060,347.373 113.298 C 349.520 99.783,347.892 95.042,340.098 92.115 C 335.519 90.396,334.833 88.313,339.000 88.780 C 347.085 89.687,349.418 89.045,352.833 84.973 C 354.666 82.788,356.510 81.000,356.930 81.000 C 358.083 81.000,364.000 92.737,364.000 95.023 C 364.000 97.924,368.901 103.000,371.700 103.000 C 373.780 103.000,373.936 102.749,372.973 100.950 C 372.370 99.823,370.788 98.405,369.458 97.799 C 366.688 96.537,365.299 93.301,366.858 91.742 C 368.306 90.294,370.886 92.551,372.871 97.000 L 374.433 100.500 374.778 97.799 C 374.968 96.314,374.646 94.206,374.062 93.115 C 373.478 92.024,373.000 90.019,373.000 88.659 C 373.000 86.291,372.851 86.233,369.464 87.272 C 365.304 88.549,364.331 87.857,360.754 81.078 C 358.424 76.662,358.424 76.651,360.315 72.828 C 361.483 70.468,362.913 69.000,364.045 69.000 C 366.545 69.000,367.311 70.551,366.011 72.979 C 364.712 75.407,365.786 75.676,367.488 73.348 C 368.601 71.825,368.846 71.845,370.611 73.598 C 372.498 75.471,372.485 75.535,369.763 77.839 C 367.195 80.013,366.029 83.002,367.750 82.999 C 368.163 82.998,369.735 81.935,371.245 80.637 C 373.179 78.973,374.779 78.426,376.659 78.786 C 378.848 79.204,379.212 78.994,378.684 77.619 C 378.193 76.341,378.749 75.800,381.020 75.346 C 382.903 74.969,384.000 74.134,384.000 73.075 C 384.000 70.861,385.949 69.000,388.267 69.000 C 389.619 69.000,389.975 68.497,389.556 67.176 C 388.916 65.161,391.590 59.000,393.105 59.000 C 394.795 59.000,395.305 62.062,394.015 64.472 C 393.327 65.758,393.086 67.331,393.480 67.968 C 393.874 68.605,393.407 69.998,392.443 71.063 C 391.479 72.128,391.141 73.000,391.692 73.000 C 393.295 73.000,397.371 76.923,397.635 78.719 C 397.768 79.623,397.408 81.238,396.835 82.309 C 396.074 83.730,396.130 84.463,397.044 85.027 C 398.271 85.785,405.000 86.140,405.000 85.447 C 405.000 83.646,402.327 80.000,401.006 80.000 C 398.555 80.000,397.938 78.984,399.086 76.840 C 399.865 75.383,399.626 74.340,398.050 72.337 C 395.500 69.094,395.479 67.540,397.940 64.084 C 400.785 60.089,400.798 58.752,398.000 58.049 C 395.904 57.522,395.451 56.745,395.194 53.243 C 394.922 49.525,395.158 48.998,397.342 48.450 C 401.322 47.451,404.167 48.323,406.302 51.193 C 408.200 53.744,408.217 54.020,406.629 56.443 C 405.708 57.849,404.289 59.000,403.477 59.000 C 401.633 59.000,401.648 59.951,403.532 62.441 C 405.602 65.179,405.355 70.285,403.021 72.976 C 401.932 74.231,401.284 75.650,401.580 76.129 C 402.435 77.512,405.638 77.141,407.000 75.500 C 410.188 71.659,411.163 75.707,408.014 79.710 C 405.928 82.362,406.136 84.000,408.559 84.000 C 409.352 84.000,410.000 83.100,410.000 82.000 C 410.000 79.590,410.373 79.543,413.460 81.566 L 415.850 83.132 413.372 86.784 C 411.612 89.377,411.077 91.170,411.527 92.963 C 412.341 96.207,413.849 98.000,415.762 98.000 C 417.440 98.000,419.919 100.799,419.968 102.750 C 419.986 103.438,418.927 104.000,417.616 104.000 C 415.378 104.000,411.668 100.515,406.795 93.837 L 405.089 91.500 405.045 94.115 C 405.020 95.553,405.823 97.803,406.830 99.115 C 407.836 100.427,408.937 102.262,409.277 103.194 C 410.187 105.692,417.106 107.549,419.911 106.048 C 423.127 104.326,422.468 98.975,418.825 97.239 C 417.131 96.431,415.905 94.844,415.480 92.910 C 414.682 89.277,415.053 88.813,419.824 87.470 C 422.062 86.840,423.621 85.727,423.838 84.605 C 424.069 83.403,423.726 82.939,422.846 83.260 C 422.105 83.529,421.619 84.276,421.764 84.918 C 421.966 85.808,421.510 85.808,419.851 84.920 L 417.673 83.755 420.087 81.928 C 424.043 78.932,427.020 78.639,430.130 80.938 C 432.687 82.829,435.000 83.609,435.000 82.582 C 435.000 81.132,433.607 78.995,432.643 78.967 C 431.478 78.933,427.000 75.559,427.000 74.715 C 427.000 74.207,432.598 72.714,435.000 72.582 C 435.825 72.537,436.644 71.487,436.820 70.250 C 437.025 68.804,437.829 68.000,439.070 68.000 C 440.614 68.000,441.022 68.750,441.111 71.750 C 441.284 77.635,440.952 79.864,439.475 82.710 C 438.720 84.166,438.373 85.795,438.704 86.330 C 439.376 87.417,442.000 84.301,442.000 82.416 C 442.000 79.494,444.952 80.329,447.332 83.925 C 449.377 87.016,450.633 87.846,454.103 88.400 C 457.625 88.964,458.716 88.728,460.404 87.041 L 462.444 85.000 459.209 85.000 C 450.718 85.000,444.328 77.186,444.692 67.250 C 444.899 61.597,444.306 61.098,440.410 63.651 C 439.025 64.558,436.516 65.262,434.835 65.214 C 432.680 65.153,431.640 65.661,431.305 66.940 C 430.774 68.971,427.883 70.629,423.715 71.293 C 421.622 71.626,420.649 71.209,419.801 69.618 C 419.181 68.453,417.959 66.952,417.087 66.282 C 415.722 65.234,415.710 65.055,417.000 64.999 C 418.876 64.917,423.000 61.549,423.000 60.097 C 423.000 59.439,421.140 59.110,418.250 59.258 C 413.998 59.475,413.466 59.264,413.180 57.250 C 413.005 56.013,412.244 55.000,411.489 55.000 C 409.412 55.000,408.878 53.451,409.968 50.584 C 410.863 48.229,411.448 48.000,416.559 48.000 C 423.153 48.000,423.790 50.187,417.432 51.000 C 414.751 51.343,413.414 52.051,413.186 53.250 C 412.941 54.541,413.513 55.000,415.368 55.000 C 416.751 55.000,418.160 54.550,418.500 54.000 C 419.559 52.286,422.162 52.904,422.710 55.000 C 423.216 56.934,425.026 57.641,426.274 56.392 C 426.609 56.058,426.358 54.944,425.716 53.917 C 424.962 52.709,424.894 51.725,425.525 51.129 C 426.893 49.838,431.000 51.592,431.000 53.468 C 431.000 55.601,432.080 55.392,436.000 52.500 C 437.864 51.125,440.561 50.000,441.994 50.000 C 443.427 50.000,445.124 49.476,445.764 48.836 C 446.494 48.106,451.343 47.599,458.766 47.477 C 465.277 47.370,471.481 46.830,472.552 46.276 C 473.623 45.723,475.063 45.472,475.750 45.718 C 476.438 45.965,477.000 45.567,477.000 44.833 C 477.000 43.734,464.242 43.512,404.250 43.568 C 364.238 43.605,327.675 43.380,323.000 43.068 L 314.500 42.500 314.500 38.333 C 314.500 36.042,314.209 33.876,313.853 33.520 C 313.498 33.164,313.530 31.664,313.925 30.187 L 314.643 27.500 345.071 27.000 C 386.412 26.321,424.150 26.880,425.734 28.195 M359.000 33.995 C 331.398 34.323,316.594 34.851,316.769 35.500 C 317.246 37.272,321.766 37.837,333.258 37.564 C 339.441 37.416,359.688 37.229,378.250 37.148 C 407.518 37.020,412.000 36.801,412.000 35.500 C 412.000 34.422,410.898 34.000,408.082 34.000 C 405.927 34.000,403.564 33.885,402.832 33.745 C 402.099 33.604,382.375 33.717,359.000 33.995 M415.000 35.643 C 415.000 37.414,416.376 37.493,444.750 37.348 C 470.335 37.217,474.744 37.413,476.240 38.744 C 477.828 40.157,478.202 40.071,480.511 37.761 C 482.662 35.611,482.801 35.138,481.439 34.615 C 478.764 33.589,422.000 33.901,422.000 34.943 C 422.000 35.905,419.879 35.718,416.750 34.479 C 415.463 33.969,415.000 34.277,415.000 35.643 M326.559 46.468 C 328.871 48.217,333.340 48.423,336.166 46.911 C 338.358 45.738,346.928 46.853,356.588 49.569 C 359.386 50.356,362.618 51.000,363.771 51.000 C 364.987 51.000,366.131 51.839,366.500 53.000 C 367.352 55.685,370.289 55.539,371.513 52.750 C 372.056 51.513,373.570 50.349,374.877 50.164 C 377.094 49.850,377.210 50.066,376.595 53.346 C 376.147 55.735,376.347 57.127,377.217 57.682 C 377.923 58.132,378.992 59.400,379.592 60.500 C 380.193 61.600,381.873 63.083,383.325 63.796 L 385.965 65.092 382.732 68.418 C 380.945 70.257,379.096 71.375,378.597 70.919 C 378.100 70.465,376.932 70.501,376.001 70.999 C 374.006 72.067,370.000 69.694,370.000 67.443 C 370.000 66.536,368.978 65.999,367.250 65.996 C 365.738 65.994,363.027 65.094,361.226 63.996 C 359.425 62.898,357.850 62.000,357.726 62.000 C 357.602 62.000,357.441 64.848,357.368 68.329 C 357.246 74.223,356.971 74.938,353.368 78.758 C 351.241 81.014,347.925 83.469,346.000 84.213 C 341.011 86.143,334.078 85.059,329.610 81.652 C 324.931 78.083,322.979 75.050,321.370 68.847 C 320.251 64.533,320.295 63.284,321.690 59.677 C 322.578 57.379,324.136 54.571,325.152 53.436 C 327.383 50.943,327.540 49.000,325.509 49.000 C 324.689 49.000,323.002 50.569,321.759 52.488 C 320.517 54.406,318.938 55.981,318.250 55.988 C 317.563 55.994,317.000 56.231,317.000 56.514 C 317.000 56.796,317.563 57.950,318.250 59.079 C 319.322 60.837,319.196 61.379,317.374 62.875 C 315.329 64.554,315.314 64.713,316.982 67.060 C 317.936 68.402,319.041 70.850,319.436 72.500 C 319.832 74.150,320.758 76.175,321.494 77.000 C 322.230 77.825,322.983 79.850,323.166 81.500 C 323.413 83.722,324.019 84.500,325.500 84.500 C 326.860 84.500,328.103 85.795,329.384 88.548 C 330.861 91.721,332.102 92.857,335.119 93.798 C 337.236 94.459,339.624 95.000,340.425 95.000 C 342.313 95.000,343.063 96.294,343.577 100.434 L 343.995 103.803 339.344 102.403 C 333.562 100.663,328.173 96.644,326.938 93.152 C 325.556 89.240,324.422 87.515,323.141 87.375 C 322.513 87.306,321.515 87.194,320.922 87.125 C 320.299 87.053,319.982 85.426,320.172 83.275 C 320.445 80.172,320.166 79.507,318.500 79.293 C 317.400 79.151,317.063 79.290,317.750 79.601 C 319.527 80.405,319.299 82.000,317.406 82.000 C 316.040 82.000,314.120 78.249,314.903 77.112 C 315.050 76.898,314.677 76.419,314.074 76.046 C 312.751 75.228,309.000 64.864,309.000 62.025 C 309.000 60.517,309.656 60.000,311.567 60.000 C 313.778 60.000,314.034 59.687,313.411 57.750 C 311.323 51.257,312.445 49.047,319.000 46.741 C 324.714 44.731,324.282 44.746,326.559 46.468 M390.960 49.452 C 392.226 50.978,391.507 55.000,389.968 55.000 C 389.474 55.000,388.589 54.100,388.000 53.000 C 387.315 51.720,385.906 51.000,384.087 51.000 C 382.524 51.000,380.685 50.325,380.000 49.500 C 378.919 48.198,379.480 48.000,384.255 48.000 C 387.843 48.000,390.174 48.505,390.960 49.452 M337.518 49.971 C 337.188 50.505,338.174 51.251,339.709 51.629 C 341.244 52.008,345.901 53.767,350.057 55.538 C 354.214 57.310,359.449 59.069,361.692 59.448 C 363.935 59.827,366.682 60.987,367.798 62.026 C 369.555 63.663,369.987 63.721,371.035 62.458 C 371.701 61.656,372.865 61.000,373.622 61.000 C 374.380 61.000,375.000 60.276,375.000 59.392 C 375.000 58.174,374.391 57.936,372.492 58.413 C 370.158 58.998,360.553 56.347,345.212 50.883 C 339.160 48.727,338.346 48.631,337.518 49.971 M458.500 50.000 C 457.400 50.473,455.375 50.890,454.000 50.927 C 452.625 50.964,449.700 51.879,447.500 52.961 C 441.617 55.853,430.364 59.077,428.563 58.386 C 427.537 57.992,427.000 58.350,427.000 59.425 C 427.000 62.157,431.136 63.024,433.885 60.869 C 435.197 59.841,437.689 59.000,439.423 59.000 C 441.158 59.000,444.342 58.100,446.500 57.000 C 448.658 55.900,450.943 55.000,451.578 55.000 C 452.213 55.000,455.041 54.041,457.863 52.868 L 462.992 50.737 466.482 53.118 C 470.030 55.539,473.000 61.124,473.000 65.372 C 473.000 71.005,463.779 79.654,459.025 78.481 C 456.121 77.764,451.000 73.227,451.000 71.372 C 451.000 70.682,450.550 69.840,450.000 69.500 C 447.778 68.127,449.179 74.169,451.750 77.046 C 455.553 81.302,460.940 81.926,467.000 78.812 C 472.446 76.014,474.884 71.594,474.952 64.398 C 475.018 57.374,472.089 53.165,465.490 50.798 C 462.745 49.813,460.500 49.038,460.500 49.074 C 460.500 49.111,459.600 49.527,458.500 50.000 M473.000 49.450 C 473.000 49.697,474.306 51.835,475.902 54.200 C 479.413 59.404,480.673 66.430,479.003 71.492 C 477.207 76.934,478.650 76.983,480.975 71.559 C 483.395 65.913,483.669 57.800,481.500 56.000 C 480.675 55.315,480.000 54.205,480.000 53.533 C 480.000 51.825,476.679 49.000,474.671 49.000 C 473.752 49.000,473.000 49.202,473.000 49.450 M385.368 54.122 C 389.174 55.856,389.358 61.000,385.614 61.000 C 383.890 61.000,380.000 56.722,380.000 54.826 C 380.000 52.739,381.812 52.501,385.368 54.122 M328.223 56.443 C 322.612 63.576,325.523 76.231,333.546 79.584 C 337.462 81.220,343.000 81.464,343.000 80.000 C 343.000 79.450,341.607 79.000,339.904 79.000 C 335.523 79.000,331.127 76.119,328.905 71.790 C 326.480 67.067,326.509 64.884,329.058 59.885 C 331.628 54.849,331.121 52.759,328.223 56.443 M338.445 55.968 C 334.843 57.411,330.000 63.801,330.000 67.112 C 330.000 70.914,334.773 76.000,338.341 76.000 C 341.570 76.000,344.000 75.049,344.000 73.786 C 344.000 73.236,343.256 73.071,342.347 73.420 C 339.347 74.572,334.239 72.125,333.156 69.017 C 331.612 64.590,332.705 62.000,336.117 62.000 C 338.391 62.000,339.000 61.551,339.000 59.872 C 339.000 57.945,339.382 57.806,343.054 58.393 C 345.698 58.815,348.161 60.119,350.139 62.142 C 353.046 65.116,353.157 65.147,352.836 62.883 C 352.309 59.176,342.366 54.398,338.445 55.968 M455.646 57.003 C 450.699 59.473,449.000 60.909,449.000 62.622 C 449.000 64.629,450.767 64.309,451.443 62.180 C 452.217 59.740,458.648 56.753,461.309 57.598 C 465.626 58.968,467.441 63.159,464.842 65.758 C 463.966 66.634,463.995 67.289,464.965 68.458 C 466.653 70.492,464.705 73.000,461.437 73.000 C 458.109 73.000,457.449 74.824,460.499 75.589 C 463.843 76.428,466.399 74.141,468.622 68.320 C 470.201 64.186,470.204 63.650,468.663 60.420 C 467.158 57.263,463.710 54.938,460.685 55.040 C 460.033 55.062,457.766 55.945,455.646 57.003 M410.000 60.345 C 410.000 61.085,410.870 62.477,411.933 63.439 C 412.995 64.401,413.611 65.849,413.301 66.658 C 412.975 67.507,413.663 68.776,414.932 69.665 C 416.139 70.510,417.523 72.246,418.008 73.522 C 418.655 75.222,419.439 75.698,420.945 75.304 C 422.565 74.880,423.000 75.239,423.000 77.000 C 423.000 78.808,422.581 79.124,420.802 78.658 C 419.593 78.342,417.967 78.613,417.187 79.259 C 416.061 80.194,415.384 79.957,413.885 78.107 C 412.848 76.826,412.000 75.176,412.000 74.439 C 412.000 73.702,411.226 72.666,410.281 72.137 C 409.158 71.509,408.640 70.148,408.787 68.215 C 408.913 66.554,408.351 64.707,407.506 64.005 C 405.280 62.158,405.592 59.000,408.000 59.000 C 409.100 59.000,410.000 59.605,410.000 60.345 M388.678 78.149 C 387.675 78.716,385.871 78.934,384.669 78.632 C 383.467 78.330,381.812 78.514,380.992 79.042 C 379.670 79.890,379.671 80.115,381.000 81.009 C 381.825 81.564,383.625 82.270,385.000 82.578 C 386.375 82.886,388.400 83.472,389.500 83.880 C 392.282 84.911,395.000 84.147,395.000 82.333 C 395.000 81.497,394.124 80.584,393.054 80.304 C 391.983 80.024,390.971 79.193,390.804 78.457 C 390.578 77.461,390.033 77.382,388.678 78.149 M377.000 84.300 C 377.000 86.920,380.554 89.150,383.537 88.401 C 386.239 87.723,386.292 87.791,385.635 91.074 C 385.265 92.926,383.593 95.692,381.921 97.220 C 378.633 100.222,378.728 102.751,382.061 100.968 C 383.127 100.397,384.000 99.495,384.000 98.965 C 384.000 98.434,384.686 98.000,385.525 98.000 C 386.363 98.000,387.509 96.763,388.070 95.250 C 388.631 93.737,389.831 91.938,390.736 91.250 C 392.043 90.258,392.085 90.002,390.941 90.009 C 390.149 90.014,388.375 88.710,387.000 87.112 C 384.181 83.834,377.000 81.815,377.000 84.300 M426.629 92.750 C 426.266 97.013,425.699 101.513,425.368 102.750 C 424.930 104.388,425.197 105.000,426.348 105.000 C 428.296 105.000,430.361 101.383,429.578 99.342 C 428.429 96.348,430.182 92.951,433.617 91.515 C 437.895 89.728,438.161 87.000,434.059 87.000 C 432.441 87.000,430.840 86.550,430.500 86.000 C 430.160 85.450,429.298 85.000,428.585 85.000 C 427.690 85.000,427.083 87.405,426.629 92.750 M391.910 97.250 C 390.021 100.913,386.782 104.000,384.826 104.000 C 381.780 104.000,382.783 105.794,386.250 106.546 C 388.038 106.934,389.831 107.757,390.235 108.376 C 391.321 110.038,391.155 114.000,390.000 114.000 C 389.450 114.000,389.000 113.570,389.000 113.045 C 389.000 112.520,387.389 111.788,385.421 111.419 C 383.016 110.968,381.488 109.970,380.761 108.374 C 380.166 107.068,379.076 106.000,378.339 106.000 C 376.471 106.000,376.664 109.971,378.638 112.153 C 379.973 113.628,380.043 114.243,379.016 115.481 C 378.322 116.317,377.372 117.000,376.903 117.000 C 375.487 117.000,372.793 110.899,373.320 108.883 C 373.682 107.499,373.279 107.000,371.799 107.000 C 370.500 107.000,369.973 107.489,370.315 108.378 C 371.040 110.267,369.087 112.000,366.234 112.000 C 362.840 112.000,360.000 113.776,360.000 115.899 C 360.000 117.966,365.047 119.012,374.890 118.985 C 381.293 118.967,383.346 118.065,382.427 115.670 C 381.718 113.823,383.928 113.328,385.566 114.966 C 386.098 115.498,388.100 116.000,390.016 116.083 C 391.932 116.165,394.729 116.682,396.231 117.230 C 399.211 118.318,404.000 117.548,404.000 115.981 C 404.000 115.441,403.137 115.000,402.082 115.000 C 401.026 115.000,398.290 113.200,396.000 111.000 C 393.710 108.800,391.424 107.000,390.918 107.000 C 389.132 107.000,390.033 103.114,392.500 100.182 C 393.875 98.548,395.000 96.714,395.000 96.106 C 395.000 94.203,393.123 94.898,391.910 97.250 M443.759 99.187 C 443.222 102.850,446.011 112.170,447.826 112.775 C 449.323 113.274,449.337 109.958,447.854 106.315 C 447.223 104.767,446.661 101.964,446.604 100.086 C 446.468 95.618,444.380 94.959,443.759 99.187 M354.000 100.550 C 354.000 102.502,353.287 105.479,352.415 107.165 C 351.275 109.368,351.135 110.535,351.915 111.315 C 353.288 112.688,354.216 111.611,355.870 106.725 C 357.169 102.886,356.595 97.000,354.921 97.000 C 354.414 97.000,354.000 98.597,354.000 100.550 M403.542 106.931 C 402.009 109.413,409.225 118.644,410.884 116.322 C 411.223 115.847,412.806 114.884,414.402 114.182 C 417.781 112.694,420.083 113.990,418.166 116.300 C 416.653 118.123,417.665 119.000,421.282 119.000 C 424.148 119.000,424.187 118.935,422.687 116.646 C 421.276 114.491,421.307 114.024,423.058 111.146 C 425.081 107.818,423.932 106.847,421.053 109.452 C 420.170 110.251,417.547 111.209,415.224 111.580 C 411.448 112.184,411.000 112.045,411.000 110.266 C 411.000 108.684,410.489 108.375,408.500 108.755 C 406.667 109.106,406.000 108.802,406.000 107.617 C 406.000 105.860,404.469 105.433,403.542 106.931 M391.000 140.284 C 391.000 145.365,394.596 146.989,405.029 146.620 C 410.254 146.435,413.537 145.889,413.779 145.162 C 414.014 144.458,413.030 144.000,411.283 144.000 C 409.697 144.000,407.911 143.511,407.313 142.913 C 406.530 142.130,406.038 142.130,405.554 142.913 C 404.645 144.384,396.697 144.297,395.200 142.800 C 393.749 141.349,393.600 139.635,395.000 140.500 C 395.550 140.840,396.000 140.657,396.000 140.094 C 396.000 139.158,392.908 137.000,391.566 137.000 C 391.255 137.000,391.000 138.478,391.000 140.284 M405.000 157.592 C 405.000 157.918,405.788 159.186,406.750 160.411 C 408.355 162.453,408.494 166.062,408.431 204.068 C 408.393 226.856,408.275 249.325,408.169 254.000 C 408.063 258.675,407.976 288.561,407.975 320.413 C 407.975 358.881,407.627 378.745,406.939 379.574 C 406.223 380.436,406.227 381.022,406.951 381.470 C 407.528 381.826,408.000 382.991,408.000 384.059 C 408.000 386.326,409.276 386.577,410.894 384.627 C 412.289 382.947,412.339 162.804,410.946 159.250 C 410.355 157.741,409.230 157.000,407.532 157.000 C 406.140 157.000,405.000 157.267,405.000 157.592 M416.000 158.441 C 416.000 159.234,416.438 160.153,416.974 160.484 C 417.509 160.815,417.960 163.879,417.976 167.293 C 417.991 170.707,418.037 174.625,418.078 176.000 C 418.118 177.375,418.149 187.950,418.147 199.500 C 418.145 211.050,418.259 255.600,418.401 298.500 C 418.555 345.253,418.287 376.989,417.732 377.720 C 416.498 379.344,419.060 385.136,420.853 384.773 C 421.979 384.546,422.187 369.736,422.095 296.500 C 421.943 176.654,421.707 160.557,420.074 158.590 C 418.429 156.607,416.000 156.518,416.000 158.441 M373.547 158.924 C 373.195 159.493,373.355 160.794,373.901 161.815 C 374.474 162.885,374.688 168.117,374.408 174.173 C 373.511 193.552,373.389 245.123,374.240 245.648 C 374.703 245.934,374.738 247.143,374.319 248.334 C 373.463 250.764,373.465 250.695,373.177 308.000 C 373.062 330.825,372.930 350.400,372.883 351.500 C 372.837 352.600,372.682 357.383,372.540 362.130 C 372.398 366.876,371.963 373.996,371.573 377.953 L 370.865 385.146 373.669 384.823 L 376.474 384.500 376.237 369.000 C 375.971 351.581,375.973 351.406,376.440 344.500 C 376.626 341.750,376.941 298.782,377.139 249.015 C 377.473 165.401,377.374 158.506,375.843 158.210 C 374.932 158.033,373.899 158.355,373.547 158.924 M427.578 158.875 C 426.841 160.066,426.939 378.021,427.678 382.250 C 427.943 383.762,428.783 385.000,429.545 385.000 C 430.702 385.000,430.857 380.820,430.486 359.750 C 430.241 345.863,430.044 330.450,430.047 325.500 C 430.050 320.550,429.985 305.025,429.902 291.000 C 429.819 276.975,429.756 262.350,429.761 258.500 C 429.766 254.650,429.814 230.815,429.869 205.534 C 429.958 163.832,429.558 155.671,427.578 158.875 M365.890 186.750 C 365.728 227.624,365.377 255.654,364.702 281.500 C 364.371 294.150,363.807 322.613,363.446 344.750 C 362.852 381.294,362.940 385.000,364.396 385.000 C 365.278 385.000,366.038 384.438,366.084 383.750 C 366.130 383.063,366.334 369.900,366.538 354.500 C 366.741 339.100,367.139 316.150,367.421 303.500 C 367.704 290.850,367.923 270.600,367.909 258.500 C 367.895 246.400,367.895 235.600,367.909 234.500 C 367.924 233.400,368.236 215.963,368.604 195.750 C 369.216 162.115,369.134 159.000,367.637 159.000 C 366.163 159.000,365.989 161.766,365.890 186.750 M360.492 161.092 C 359.876 161.954,359.689 167.157,360.012 174.500 C 360.683 189.776,362.161 187.303,361.783 171.534 C 361.585 163.247,361.197 160.108,360.492 161.092 M434.769 195.749 C 435.199 242.407,435.174 246.757,434.447 252.577 C 433.642 259.024,434.839 281.000,435.996 281.000 C 437.207 281.000,436.711 166.737,435.498 166.332 C 434.839 166.113,434.589 176.192,434.769 195.749 M359.940 196.691 C 359.348 204.656,359.464 225.124,360.107 226.139 C 360.581 226.887,360.991 227.050,361.018 226.500 C 361.643 213.559,361.575 196.855,360.895 196.435 C 360.403 196.131,359.973 196.246,359.940 196.691 M398.500 219.000 C 398.151 220.100,397.409 221.000,396.851 221.000 C 396.223 221.000,395.947 224.147,396.128 229.255 C 396.289 233.796,396.115 238.005,395.742 238.608 C 394.767 240.186,397.440 243.429,399.169 242.765 C 400.303 242.330,400.498 241.011,400.046 236.853 C 399.725 233.909,399.522 228.238,399.594 224.250 C 399.666 220.262,399.592 217.000,399.430 217.000 C 399.268 217.000,398.849 217.900,398.500 219.000 M383.000 236.535 C 383.000 237.276,383.418 238.140,383.929 238.456 C 384.461 238.785,384.659 244.256,384.392 251.265 C 384.136 257.994,383.794 284.908,383.632 311.073 C 383.470 337.237,382.990 359.207,382.566 359.894 C 382.141 360.580,382.128 363.248,382.535 365.821 C 383.631 372.739,383.812 378.000,382.954 378.000 C 382.538 378.000,382.243 379.575,382.297 381.500 C 382.413 385.577,384.599 386.205,387.503 382.996 C 389.100 381.232,389.185 380.367,388.214 375.746 C 387.607 372.861,386.973 367.125,386.805 363.000 L 386.500 355.500 389.232 355.785 C 391.340 356.005,391.830 355.719,391.375 354.535 C 391.051 353.691,389.940 353.000,388.907 353.000 C 387.089 353.000,387.042 351.539,387.462 308.716 C 387.702 284.359,388.185 263.681,388.537 262.763 C 388.889 261.846,388.843 260.555,388.434 259.894 C 388.026 259.233,387.547 253.924,387.370 248.096 C 387.192 242.268,387.037 237.215,387.024 236.867 C 386.974 235.528,383.000 235.201,383.000 236.535 M441.196 269.601 C 441.143 287.807,440.964 303.305,440.800 304.042 C 440.635 304.779,441.353 305.566,442.396 305.792 C 443.892 306.116,444.142 305.813,443.582 304.352 C 443.191 303.334,442.859 293.276,442.844 282.000 C 442.829 270.725,442.474 255.875,442.055 249.000 C 441.452 239.098,441.273 243.380,441.196 269.601 M395.619 245.807 C 395.345 246.251,395.025 270.454,394.909 299.590 C 394.755 338.002,395.014 353.157,395.849 354.717 C 398.312 359.321,396.383 362.983,393.181 359.781 C 392.223 358.823,392.103 359.304,392.622 362.031 C 392.985 363.939,393.624 365.950,394.043 366.500 C 395.191 368.007,395.407 371.268,394.499 373.374 C 393.926 374.703,394.193 375.528,395.419 376.214 C 396.977 377.086,396.996 377.347,395.611 378.877 C 393.864 380.808,394.505 385.000,396.547 385.000 C 397.270 385.000,398.005 383.988,398.180 382.750 C 398.403 381.185,399.179 380.500,400.731 380.500 C 403.568 380.500,403.647 380.230,402.042 376.000 C 401.311 374.075,400.807 372.075,400.922 371.555 C 401.036 371.036,400.601 369.622,399.954 368.414 C 399.172 366.954,399.100 365.645,399.736 364.507 C 400.302 363.497,400.357 361.096,399.872 358.648 C 399.031 354.401,398.978 349.435,399.118 288.000 C 399.162 268.475,398.878 250.813,398.488 248.750 C 397.812 245.180,396.707 244.047,395.619 245.807 M359.034 266.000 C 358.460 268.847,358.320 274.686,357.613 325.500 C 357.222 353.550,356.651 378.131,356.344 380.124 C 355.823 383.497,357.166 386.159,358.388 384.181 C 358.678 383.712,359.182 361.318,359.508 334.415 C 359.835 307.512,360.211 283.475,360.343 281.000 C 360.607 276.061,359.519 263.593,359.034 266.000 M434.927 285.691 C 434.645 292.650,435.287 302.659,436.065 303.450 C 436.646 304.040,437.000 300.750,437.000 294.759 C 437.000 289.410,436.555 284.843,436.000 284.500 C 435.450 284.160,434.967 284.696,434.927 285.691 M434.713 310.250 C 434.156 311.784,434.964 381.980,435.559 383.813 C 436.975 388.174,437.541 381.552,437.396 362.327 C 437.305 350.322,437.179 333.413,437.115 324.750 C 437.051 315.955,436.595 309.000,436.083 309.000 C 435.579 309.000,434.963 309.563,434.713 310.250 M441.933 317.083 C 441.896 317.863,441.822 333.100,441.767 350.945 C 441.691 375.751,441.957 383.486,442.894 383.798 C 443.853 384.118,444.018 376.849,443.651 350.528 C 443.393 332.005,442.916 316.583,442.591 316.258 C 442.266 315.933,441.970 316.304,441.933 317.083 M382.122 390.904 C 379.176 392.769,382.453 393.861,393.063 394.548 C 401.799 395.115,404.003 395.551,403.588 396.632 C 403.299 397.385,403.468 398.000,403.964 398.000 C 405.576 398.000,406.309 393.810,404.857 392.890 C 403.764 392.198,389.707 391.415,386.750 391.882 C 386.337 391.947,386.000 391.550,386.000 391.000 C 386.000 389.774,383.984 389.724,382.122 390.904 M355.402 396.857 C 356.821 398.451,357.634 398.719,358.606 397.912 C 359.539 397.138,361.911 397.142,366.978 397.929 C 374.336 399.070,379.904 398.504,378.189 396.789 C 377.662 396.262,371.891 395.581,365.365 395.276 L 353.500 394.721 355.402 396.857 M411.400 397.162 C 410.674 398.337,412.984 399.220,415.307 398.655 C 416.513 398.362,421.325 398.476,426.000 398.908 C 432.406 399.501,435.162 399.364,437.187 398.354 C 440.961 396.471,442.814 397.554,444.026 402.353 C 445.653 408.796,446.540 410.640,447.195 408.935 C 447.497 408.146,446.999 405.025,446.087 402.000 L 444.428 396.500 428.130 396.481 C 419.167 396.470,411.638 396.777,411.400 397.162 M416.000 404.678 C 416.000 406.285,416.501 408.101,417.113 408.713 C 420.973 412.573,419.838 430.901,415.376 436.751 C 413.958 438.610,413.039 440.372,413.332 440.666 C 415.198 442.531,419.648 433.884,420.365 427.000 C 420.623 424.525,421.139 420.915,421.511 418.977 C 422.288 414.933,419.735 404.854,417.453 402.961 C 416.239 401.953,416.000 402.235,416.000 404.678 M370.856 404.750 C 371.822 406.574,374.622 419.581,375.539 426.500 C 375.953 429.623,375.455 431.678,373.268 435.874 C 370.877 440.461,369.755 441.527,365.608 443.157 C 361.161 444.903,360.547 444.933,358.374 443.510 C 355.365 441.538,355.284 442.987,358.250 445.740 C 360.379 447.716,360.742 447.749,365.000 446.361 C 370.372 444.610,375.203 439.604,376.861 434.069 C 378.329 429.171,377.375 414.475,375.383 411.285 C 374.622 410.067,374.000 407.705,374.000 406.035 C 374.000 403.649,373.565 403.000,371.965 403.000 C 370.340 403.000,370.117 403.353,370.856 404.750 M400.249 404.246 C 400.477 404.932,402.362 405.769,404.436 406.106 C 407.980 406.682,409.902 408.195,410.021 410.500 C 410.049 411.050,411.124 412.786,412.410 414.358 C 415.086 417.630,416.577 416.609,414.478 412.944 C 413.708 411.600,412.766 409.825,412.384 409.000 C 410.993 405.994,406.477 403.072,403.167 403.036 C 400.938 403.012,399.971 403.413,400.249 404.246 M387.610 414.964 C 385.816 419.954,386.071 425.308,388.164 426.601 C 389.967 427.716,391.204 425.414,389.542 424.035 C 387.577 422.404,387.554 418.615,389.500 417.000 C 391.050 415.713,391.620 410.000,390.198 410.000 C 389.756 410.000,388.592 412.234,387.610 414.964 M395.750 420.689 C 393.202 421.355,393.608 424.556,396.592 427.322 C 398.780 429.351,399.548 429.553,401.527 428.619 C 403.693 427.597,403.749 427.380,402.274 425.751 C 401.397 424.781,400.969 423.697,401.324 423.343 C 401.935 422.732,399.061 419.969,398.000 420.148 C 397.725 420.194,396.712 420.438,395.750 420.689 M381.526 424.750 C 381.933 425.712,382.708 428.975,383.248 432.000 C 383.788 435.025,385.303 438.932,386.615 440.683 C 387.927 442.434,389.000 444.253,389.000 444.726 C 389.000 445.720,397.026 448.171,401.652 448.589 C 403.715 448.775,405.376 448.242,406.459 447.045 C 408.045 445.293,407.857 445.213,401.999 445.131 C 398.297 445.078,394.801 444.405,393.139 443.423 C 389.966 441.549,385.875 434.593,383.920 427.750 C 383.174 425.137,382.163 423.000,381.675 423.000 C 381.186 423.000,381.119 423.788,381.526 424.750 M424.915 426.250 C 424.773 427.173,424.766 431.137,424.900 434.548 C 424.993 436.924,429.746 442.587,430.780 441.553 C 431.037 441.296,430.291 439.253,429.123 437.012 C 427.956 434.772,426.993 431.940,426.985 430.719 C 426.970 428.602,425.156 424.684,424.915 426.250 M390.000 431.932 C 390.000 433.910,396.302 437.253,400.575 437.541 C 406.012 437.907,406.442 436.486,401.150 435.640 C 399.033 435.301,396.150 434.119,394.743 433.012 C 392.014 430.866,390.000 430.407,390.000 431.932 M375.875 444.500 C 375.806 444.775,375.694 445.563,375.625 446.250 C 375.552 446.976,373.406 447.748,370.500 448.093 C 367.750 448.419,366.175 448.787,367.000 448.912 C 372.800 449.786,374.547 449.791,375.577 448.936 C 376.220 448.402,377.423 448.225,378.251 448.543 C 379.078 448.860,381.183 448.251,382.928 447.190 C 386.029 445.304,386.049 445.246,383.801 444.644 C 381.016 443.898,376.048 443.808,375.875 444.500 M428.000 492.500 C 428.000 493.325,428.868 494.000,429.929 494.000 C 430.989 494.000,432.452 494.563,433.179 495.250 C 434.604 496.599,435.035 496.684,445.385 497.662 C 451.055 498.198,452.188 498.064,451.804 496.906 C 451.547 496.133,449.574 495.224,447.419 494.886 C 445.263 494.549,440.818 493.536,437.540 492.636 C 430.152 490.608,428.000 490.577,428.000 492.500 " stroke="none" fill="#000000" fill-rule="evenodd"/></svg>