<?xml version="1.0" standalone="no"?>
<!DOCTYPE svg PUBLIC "-//W3C//DTD SVG 20010904//EN"
 "http://www.w3.org/TR/2001/REC-SVG-20010904/DTD/svg10.dtd">
<svg version="1.0" xmlns="http://www.w3.org/2000/svg"
 width="665.000000pt" height="375.000000pt" viewBox="0 0 665.000000 375.000000"
 preserveAspectRatio="xMidYMid meet">

<g transform="translate(0.000000,375.000000) scale(0.100000,-0.100000)"
fill="#000000" stroke="none">
<path d="M2134 2571 c-2 -2 -4 -21 -4 -42 0 -33 4 -40 25 -45 14 -3 32 -3 40
0 9 3 13 2 10 -4 -3 -6 -1 -10 5 -10 16 0 47 -38 65 -78 12 -28 14 -111 12
-522 l-2 -488 -31 -39 c-21 -26 -45 -43 -77 -53 -47 -15 -47 -15 -47 -60 l0
-46 250 0 250 0 0 53 c0 40 -3 51 -13 47 -8 -3 -34 2 -58 11 -24 9 -50 17 -57
17 -6 1 -10 3 -7 6 2 2 -3 19 -13 36 -15 27 -17 74 -20 384 -2 211 -7 352 -13
352 -5 0 -9 7 -9 15 0 8 5 15 10 15 6 0 10 27 10 61 0 51 -3 60 -16 55 -11 -4
-10 2 6 24 12 17 25 30 30 30 5 0 18 -24 28 -53 11 -29 38 -96 60 -148 22 -52
61 -146 88 -209 26 -63 93 -223 149 -355 56 -132 110 -262 120 -288 10 -26 22
-46 28 -44 5 1 21 32 34 67 46 119 64 165 83 205 26 54 114 257 140 325 38 97
104 240 110 240 7 0 88 -170 100 -210 4 -14 52 -128 105 -255 54 -126 113
-268 131 -315 32 -84 32 -85 44 -55 6 16 17 43 25 60 7 16 28 64 45 105 18 41
53 125 80 185 106 247 193 453 210 501 29 83 103 244 112 244 4 0 8 -199 8
-442 0 -414 -2 -446 -19 -485 -22 -48 -62 -73 -116 -73 l-35 0 0 -55 0 -55
255 0 255 0 0 49 c0 45 -2 49 -27 54 -44 10 -91 43 -109 79 -15 29 -17 86 -22
493 -3 332 -1 472 7 503 17 61 64 111 112 118 l39 7 0 48 0 49 -300 0 -300 0
0 -49 c0 -48 1 -49 34 -55 19 -4 40 -13 46 -21 16 -19 9 -77 -18 -135 -34 -78
-54 -139 -47 -150 3 -5 1 -10 -4 -10 -12 0 -33 -46 -58 -125 -9 -27 -20 -55
-24 -60 -4 -6 -9 -22 -11 -35 -2 -14 -14 -45 -27 -70 -12 -25 -40 -91 -62
-148 -23 -57 -46 -101 -51 -100 -10 4 -78 166 -148 351 -17 43 -43 111 -59
150 -16 40 -39 99 -51 132 -13 33 -35 87 -49 120 -15 33 -36 86 -46 118 -11
31 -22 57 -26 57 -4 0 -12 -21 -18 -47 -7 -26 -23 -70 -36 -97 -13 -28 -58
-143 -100 -256 -41 -113 -84 -225 -95 -250 -11 -25 -37 -92 -60 -150 -47 -123
-56 -139 -68 -125 -8 9 -77 174 -162 390 -16 39 -59 144 -96 234 -63 154 -66
166 -53 190 13 22 31 32 87 47 7 2 12 21 12 49 l0 46 -296 -3 c-162 -1 -297
-4 -300 -7z m210 -26 c-10 -8 -23 -15 -28 -15 -6 0 -1 7 10 15 10 8 23 15 28
15 6 0 1 -7 -10 -15z m-46 -20 c-3 -3 -9 2 -12 12 -6 14 -5 15 5 6 7 -7 10
-15 7 -18z m1917 16 c3 -5 2 -12 -3 -15 -5 -3 -9 1 -9 9 0 17 3 19 12 6z
m-1749 -63 c4 -7 3 -8 -4 -4 -7 4 -12 1 -12 -9 0 -13 -2 -14 -14 -3 -14 13
-12 15 21 27 1 1 5 -4 9 -11z m-106 -2 c0 -3 -4 -8 -10 -11 -5 -3 -10 -1 -10
4 0 6 5 11 10 11 6 0 10 -2 10 -4z m0 -56 c0 -5 -4 -10 -10 -10 -5 0 -10 5
-10 10 0 6 5 10 10 10 6 0 10 -4 10 -10z m70 1 c0 -5 -9 -7 -20 -4 -11 3 -20
7 -20 9 0 2 9 4 20 4 11 0 20 -4 20 -9z m1768 -36 c3 -3 -4 -4 -16 -2 -12 2
-24 6 -28 10 -4 3 4 4 16 2 12 -2 25 -7 28 -10z m-111 -57 c-3 -8 -6 -5 -6 6
-1 11 2 17 5 13 3 -3 4 -12 1 -19z m-1660 -230 c2 -18 0 -20 -7 -8 -8 13 -10
12 -10 -2 0 -10 -5 -18 -11 -18 -10 0 -5 13 14 38 12 16 12 16 14 -10z m-42
-48 c-3 -5 -11 -10 -16 -10 -6 0 -7 5 -4 10 3 6 11 10 16 10 6 0 7 -4 4 -10z
m-44 -23 c-10 -9 -11 -8 -5 6 3 10 9 15 12 12 3 -3 0 -11 -7 -18z m62 -192
c-3 -9 -8 -14 -10 -11 -3 3 -2 9 2 15 9 16 15 13 8 -4z"/>
</g>
</svg>
